<svg id="Layer_1" data-name="Layer 1" xmlns="http://www.w3.org/2000/svg" viewBox="0 0 512 512"><title>academy-hat-flat</title><circle cx="256" cy="256" r="256" fill="#f3eeda"/><polygon points="250.61 271.84 103.8 205.39 254.47 138.94 399.72 203.84 250.61 271.84" fill="#98d3cb"/><rect x="387.49" y="201.53" width="9.27" height="97.36" fill="#98d3cb"/><path d="M406.8,302.36A14.68,14.68,0,1,0,392.13,317,14.68,14.68,0,0,0,406.8,302.36Z" fill="#98d3cb"/><path d="M385.47,307s-11.63,24.34-7,61.43h16.69v-64.9S385.47,308.93,385.47,307Z" fill="#98d3cb"/><path d="M400.17,307s11.57,24.34,6.93,61.43H390.53v-64.9S400.18,308.93,400.17,307Z" fill="#98d3cb"/><path d="M334.05,245c0,.7-71.89,34-85.76,40.46C234.41,279,162.52,245.69,162.52,245V343.7c23.17,24.62,68.84,28.6,83.45,29.23v.13s.84,0,2.32,0,2.32,0,2.32,0v-.13c14.61-.64,60.27-4.61,83.45-29.23Z" fill="#98d3cb"/></svg>